<!--?xml version="1.0" standalone="no"?-->
              <svg id="sw-js-blob-svg" viewBox="0 0 100 100" xmlns="http://www.w3.org/2000/svg" version="1.1">
                    <defs> 
                        <linearGradient id="sw-gradient" x1="0" x2="1" y1="1" y2="0">
                            <stop id="stop1" stop-color="rgba(218.809, 251.842, 255, 1)" offset="0%"></stop>
                            <stop id="stop2" stop-color="rgba(43, 179, 192, 1)" offset="100%"></stop>
                        </linearGradient>
                    </defs>
                <path fill="url(#sw-gradient)" d="M22.8,-33.8C26.1,-28.9,23.1,-17.7,24.3,-9.1C25.4,-0.4,30.8,5.7,31.5,12.3C32.2,19,28.3,26.2,22.2,29.8C16.2,33.4,8.1,33.4,1.1,31.9C-6,30.4,-11.9,27.5,-19.7,24.5C-27.5,21.5,-37.2,18.3,-41.7,11.8C-46.2,5.2,-45.7,-4.7,-41.2,-11.8C-36.6,-18.8,-28.2,-22.9,-20.6,-26.4C-13.1,-29.9,-6.6,-32.7,1.6,-34.9C9.7,-37.1,19.4,-38.6,22.8,-33.8Z" width="100%" height="100%" transform="translate(50 50)" stroke-width="0" style="transition: all 0.3s ease 0s;" stroke="url(#sw-gradient)"></path>
              </svg>